<?xml version="1.0" encoding="utf-8" standalone="no"?>
<!DOCTYPE svg PUBLIC "-//W3C//DTD SVG 1.1//EN"
  "http://www.w3.org/Graphics/SVG/1.1/DTD/svg11.dtd">
<svg xmlns:xlink="http://www.w3.org/1999/xlink" width="603.254688pt" height="600.59625pt" viewBox="0 0 603.254688 600.59625" xmlns="http://www.w3.org/2000/svg" version="1.1">
 <metadata>
  <rdf:RDF xmlns:dc="http://purl.org/dc/elements/1.1/" xmlns:cc="http://creativecommons.org/ns#" xmlns:rdf="http://www.w3.org/1999/02/22-rdf-syntax-ns#">
   <cc:Work>
    <dc:type rdf:resource="http://purl.org/dc/dcmitype/StillImage"/>
    <dc:date>2026-04-23T12:10:24.672749</dc:date>
    <dc:format>image/svg+xml</dc:format>
    <dc:creator>
     <cc:Agent>
      <dc:title>Matplotlib v3.10.0, https://matplotlib.org/</dc:title>
     </cc:Agent>
    </dc:creator>
   </cc:Work>
  </rdf:RDF>
 </metadata>
 <defs>
  <style type="text/css">*{stroke-linejoin: round; stroke-linecap: butt}</style>
 </defs>
 <g id="figure_1">
  <g id="patch_1">
   <path d="M -0 600.59625 
L 603.254688 600.59625 
L 603.254688 0 
L -0 0 
z
" style="fill: #ffffff"/>
  </g>
  <g id="axes_1">
   <g id="patch_2">
    <path d="M 30.103125 576.718125 
L 588.103125 576.718125 
L 588.103125 22.318125 
L 30.103125 22.318125 
z
" style="fill: #ffffff"/>
   </g>
   <g id="PathCollection_1">
    <defs>
     <path id="mbc2167e2f6" d="M 0 3.535534 
C 0.937635 3.535534 1.836992 3.163008 2.5 2.5 
C 3.163008 1.836992 3.535534 0.937635 3.535534 0 
C 3.535534 -0.937635 3.163008 -1.836992 2.5 -2.5 
C 1.836992 -3.163008 0.937635 -3.535534 0 -3.535534 
C -0.937635 -3.535534 -1.836992 -3.163008 -2.5 -2.5 
C -3.163008 -1.836992 -3.535534 -0.937635 -3.535534 0 
C -3.535534 0.937635 -3.163008 1.836992 -2.5 2.5 
C -1.836992 3.163008 -0.937635 3.535534 0 3.535534 
z
" style="stroke: #000000; stroke-opacity: 0.7"/>
    </defs>
    <g clip-path="url(#p16fea10acd)">
     <use xlink:href="#mbc2167e2f6" x="146.035994" y="512.038496" style="fill-opacity: 0.7; stroke: #000000; stroke-opacity: 0.7"/>
     <use xlink:href="#mbc2167e2f6" x="184.327623" y="531.223507" style="fill-opacity: 0.7; stroke: #000000; stroke-opacity: 0.7"/>
     <use xlink:href="#mbc2167e2f6" x="341.28744" y="205.076077" style="fill-opacity: 0.7; stroke: #000000; stroke-opacity: 0.7"/>
     <use xlink:href="#mbc2167e2f6" x="344.523845" y="178.503683" style="fill-opacity: 0.7; stroke: #000000; stroke-opacity: 0.7"/>
     <use xlink:href="#mbc2167e2f6" x="503.916553" y="429.935188" style="fill-opacity: 0.7; stroke: #000000; stroke-opacity: 0.7"/>
     <use xlink:href="#mbc2167e2f6" x="457.480356" y="208.250593" style="fill-opacity: 0.7; stroke: #000000; stroke-opacity: 0.7"/>
     <use xlink:href="#mbc2167e2f6" x="416.327845" y="467.037848" style="fill-opacity: 0.7; stroke: #000000; stroke-opacity: 0.7"/>
     <use xlink:href="#mbc2167e2f6" x="32.946135" y="109.048472" style="fill-opacity: 0.7; stroke: #000000; stroke-opacity: 0.7"/>
     <use xlink:href="#mbc2167e2f6" x="67.388125" y="179.020405" style="fill-opacity: 0.7; stroke: #000000; stroke-opacity: 0.7"/>
     <use xlink:href="#mbc2167e2f6" x="434.867395" y="313.70965" style="fill-opacity: 0.7; stroke: #000000; stroke-opacity: 0.7"/>
     <use xlink:href="#mbc2167e2f6" x="245.835962" y="73.417735" style="fill-opacity: 0.7; stroke: #000000; stroke-opacity: 0.7"/>
     <use xlink:href="#mbc2167e2f6" x="301.02106" y="102.540923" style="fill-opacity: 0.7; stroke: #000000; stroke-opacity: 0.7"/>
     <use xlink:href="#mbc2167e2f6" x="218.719963" y="43.200697" style="fill-opacity: 0.7; stroke: #000000; stroke-opacity: 0.7"/>
     <use xlink:href="#mbc2167e2f6" x="228.899548" y="523.723027" style="fill-opacity: 0.7; stroke: #000000; stroke-opacity: 0.7"/>
     <use xlink:href="#mbc2167e2f6" x="355.490232" y="285.768442" style="fill-opacity: 0.7; stroke: #000000; stroke-opacity: 0.7"/>
     <use xlink:href="#mbc2167e2f6" x="488.988375" y="329.874843" style="fill-opacity: 0.7; stroke: #000000; stroke-opacity: 0.7"/>
     <use xlink:href="#mbc2167e2f6" x="95.059345" y="469.255998" style="fill-opacity: 0.7; stroke: #000000; stroke-opacity: 0.7"/>
     <use xlink:href="#mbc2167e2f6" x="299.926809" y="319.352895" style="fill-opacity: 0.7; stroke: #000000; stroke-opacity: 0.7"/>
     <use xlink:href="#mbc2167e2f6" x="447.930188" y="185.048936" style="fill-opacity: 0.7; stroke: #000000; stroke-opacity: 0.7"/>
     <use xlink:href="#mbc2167e2f6" x="557.457755" y="535.909848" style="fill-opacity: 0.7; stroke: #000000; stroke-opacity: 0.7"/>
     <use xlink:href="#mbc2167e2f6" x="374.10232" y="376.528158" style="fill-opacity: 0.7; stroke: #000000; stroke-opacity: 0.7"/>
     <use xlink:href="#mbc2167e2f6" x="157.082718" y="535.826137" style="fill-opacity: 0.7; stroke: #000000; stroke-opacity: 0.7"/>
     <use xlink:href="#mbc2167e2f6" x="427.775229" y="448.173274" style="fill-opacity: 0.7; stroke: #000000; stroke-opacity: 0.7"/>
     <use xlink:href="#mbc2167e2f6" x="558.681468" y="530.080334" style="fill-opacity: 0.7; stroke: #000000; stroke-opacity: 0.7"/>
     <use xlink:href="#mbc2167e2f6" x="511.823408" y="407.007406" style="fill-opacity: 0.7; stroke: #000000; stroke-opacity: 0.7"/>
     <use xlink:href="#mbc2167e2f6" x="197.119218" y="235.142298" style="fill-opacity: 0.7; stroke: #000000; stroke-opacity: 0.7"/>
     <use xlink:href="#mbc2167e2f6" x="438.092625" y="390.627108" style="fill-opacity: 0.7; stroke: #000000; stroke-opacity: 0.7"/>
     <use xlink:href="#mbc2167e2f6" x="93.660442" y="544.678796" style="fill-opacity: 0.7; stroke: #000000; stroke-opacity: 0.7"/>
     <use xlink:href="#mbc2167e2f6" x="568.895095" y="102.646799" style="fill-opacity: 0.7; stroke: #000000; stroke-opacity: 0.7"/>
     <use xlink:href="#mbc2167e2f6" x="116.326402" y="277.216278" style="fill-opacity: 0.7; stroke: #000000; stroke-opacity: 0.7"/>
     <use xlink:href="#mbc2167e2f6" x="289.104968" y="223.929565" style="fill-opacity: 0.7; stroke: #000000; stroke-opacity: 0.7"/>
     <use xlink:href="#mbc2167e2f6" x="280.471595" y="316.811518" style="fill-opacity: 0.7; stroke: #000000; stroke-opacity: 0.7"/>
     <use xlink:href="#mbc2167e2f6" x="481.699213" y="194.826897" style="fill-opacity: 0.7; stroke: #000000; stroke-opacity: 0.7"/>
     <use xlink:href="#mbc2167e2f6" x="173.421519" y="187.036449" style="fill-opacity: 0.7; stroke: #000000; stroke-opacity: 0.7"/>
     <use xlink:href="#mbc2167e2f6" x="266.743664" y="346.382116" style="fill-opacity: 0.7; stroke: #000000; stroke-opacity: 0.7"/>
     <use xlink:href="#mbc2167e2f6" x="575.778026" y="400.804796" style="fill-opacity: 0.7; stroke: #000000; stroke-opacity: 0.7"/>
     <use xlink:href="#mbc2167e2f6" x="347.541503" y="362.581676" style="fill-opacity: 0.7; stroke: #000000; stroke-opacity: 0.7"/>
     <use xlink:href="#mbc2167e2f6" x="312.15035" y="26.386305" style="fill-opacity: 0.7; stroke: #000000; stroke-opacity: 0.7"/>
     <use xlink:href="#mbc2167e2f6" x="63.194756" y="391.738124" style="fill-opacity: 0.7; stroke: #000000; stroke-opacity: 0.7"/>
     <use xlink:href="#mbc2167e2f6" x="228.180846" y="149.199773" style="fill-opacity: 0.7; stroke: #000000; stroke-opacity: 0.7"/>
     <use xlink:href="#mbc2167e2f6" x="558.815936" y="373.494495" style="fill-opacity: 0.7; stroke: #000000; stroke-opacity: 0.7"/>
     <use xlink:href="#mbc2167e2f6" x="294.271482" y="62.329184" style="fill-opacity: 0.7; stroke: #000000; stroke-opacity: 0.7"/>
     <use xlink:href="#mbc2167e2f6" x="582.472909" y="40.718668" style="fill-opacity: 0.7; stroke: #000000; stroke-opacity: 0.7"/>
     <use xlink:href="#mbc2167e2f6" x="478.227332" y="558.973999" style="fill-opacity: 0.7; stroke: #000000; stroke-opacity: 0.7"/>
     <use xlink:href="#mbc2167e2f6" x="579.407257" y="317.144725" style="fill-opacity: 0.7; stroke: #000000; stroke-opacity: 0.7"/>
     <use xlink:href="#mbc2167e2f6" x="418.047057" y="155.695689" style="fill-opacity: 0.7; stroke: #000000; stroke-opacity: 0.7"/>
     <use xlink:href="#mbc2167e2f6" x="348.871779" y="264.049274" style="fill-opacity: 0.7; stroke: #000000; stroke-opacity: 0.7"/>
     <use xlink:href="#mbc2167e2f6" x="404.387757" y="574.343075" style="fill-opacity: 0.7; stroke: #000000; stroke-opacity: 0.7"/>
     <use xlink:href="#mbc2167e2f6" x="437.596029" y="82.046959" style="fill-opacity: 0.7; stroke: #000000; stroke-opacity: 0.7"/>
     <use xlink:href="#mbc2167e2f6" x="43.828251" y="327.444364" style="fill-opacity: 0.7; stroke: #000000; stroke-opacity: 0.7"/>
    </g>
   </g>
   <g id="PathCollection_2">
    <defs>
     <path id="m9618b5509f" d="M -8.660254 8.660254 
L 8.660254 8.660254 
L 8.660254 -8.660254 
L -8.660254 -8.660254 
z
" style="stroke: #ff0000"/>
    </defs>
    <g clip-path="url(#p16fea10acd)">
     <use xlink:href="#m9618b5509f" x="496.320507" y="323.591289" style="fill: #ff0000; stroke: #ff0000"/>
    </g>
   </g>
   <g id="matplotlib.axis_1">
    <g id="xtick_1">
     <g id="line2d_1">
      <defs>
       <path id="mb010430dfe" d="M 0 0 
L 0 3.5 
" style="stroke: #000000; stroke-width: 0.8"/>
      </defs>
      <g>
       <use xlink:href="#mb010430dfe" x="30.103125" y="576.718125" style="stroke: #000000; stroke-width: 0.8"/>
      </g>
     </g>
     <g id="text_1">
      <!-- 0.0 -->
      <g transform="translate(22.151563 591.316563) scale(0.1 -0.1)">
       <defs>
        <path id="DejaVuSans-30" d="M 2034 4250 
Q 1547 4250 1301 3770 
Q 1056 3291 1056 2328 
Q 1056 1369 1301 889 
Q 1547 409 2034 409 
Q 2525 409 2770 889 
Q 3016 1369 3016 2328 
Q 3016 3291 2770 3770 
Q 2525 4250 2034 4250 
z
M 2034 4750 
Q 2819 4750 3233 4129 
Q 3647 3509 3647 2328 
Q 3647 1150 3233 529 
Q 2819 -91 2034 -91 
Q 1250 -91 836 529 
Q 422 1150 422 2328 
Q 422 3509 836 4129 
Q 1250 4750 2034 4750 
z
" transform="scale(0.015625)"/>
        <path id="DejaVuSans-2e" d="M 684 794 
L 1344 794 
L 1344 0 
L 684 0 
L 684 794 
z
" transform="scale(0.015625)"/>
       </defs>
       <use xlink:href="#DejaVuSans-30"/>
       <use xlink:href="#DejaVuSans-2e" transform="translate(63.623047 0)"/>
       <use xlink:href="#DejaVuSans-30" transform="translate(95.410156 0)"/>
      </g>
     </g>
    </g>
    <g id="xtick_2">
     <g id="line2d_2">
      <g>
       <use xlink:href="#mb010430dfe" x="141.703125" y="576.718125" style="stroke: #000000; stroke-width: 0.8"/>
      </g>
     </g>
     <g id="text_2">
      <!-- 0.2 -->
      <g transform="translate(133.751563 591.316563) scale(0.1 -0.1)">
       <defs>
        <path id="DejaVuSans-32" d="M 1228 531 
L 3431 531 
L 3431 0 
L 469 0 
L 469 531 
Q 828 903 1448 1529 
Q 2069 2156 2228 2338 
Q 2531 2678 2651 2914 
Q 2772 3150 2772 3378 
Q 2772 3750 2511 3984 
Q 2250 4219 1831 4219 
Q 1534 4219 1204 4116 
Q 875 4013 500 3803 
L 500 4441 
Q 881 4594 1212 4672 
Q 1544 4750 1819 4750 
Q 2544 4750 2975 4387 
Q 3406 4025 3406 3419 
Q 3406 3131 3298 2873 
Q 3191 2616 2906 2266 
Q 2828 2175 2409 1742 
Q 1991 1309 1228 531 
z
" transform="scale(0.015625)"/>
       </defs>
       <use xlink:href="#DejaVuSans-30"/>
       <use xlink:href="#DejaVuSans-2e" transform="translate(63.623047 0)"/>
       <use xlink:href="#DejaVuSans-32" transform="translate(95.410156 0)"/>
      </g>
     </g>
    </g>
    <g id="xtick_3">
     <g id="line2d_3">
      <g>
       <use xlink:href="#mb010430dfe" x="253.303125" y="576.718125" style="stroke: #000000; stroke-width: 0.8"/>
      </g>
     </g>
     <g id="text_3">
      <!-- 0.4 -->
      <g transform="translate(245.351563 591.316563) scale(0.1 -0.1)">
       <defs>
        <path id="DejaVuSans-34" d="M 2419 4116 
L 825 1625 
L 2419 1625 
L 2419 4116 
z
M 2253 4666 
L 3047 4666 
L 3047 1625 
L 3713 1625 
L 3713 1100 
L 3047 1100 
L 3047 0 
L 2419 0 
L 2419 1100 
L 313 1100 
L 313 1709 
L 2253 4666 
z
" transform="scale(0.015625)"/>
       </defs>
       <use xlink:href="#DejaVuSans-30"/>
       <use xlink:href="#DejaVuSans-2e" transform="translate(63.623047 0)"/>
       <use xlink:href="#DejaVuSans-34" transform="translate(95.410156 0)"/>
      </g>
     </g>
    </g>
    <g id="xtick_4">
     <g id="line2d_4">
      <g>
       <use xlink:href="#mb010430dfe" x="364.903125" y="576.718125" style="stroke: #000000; stroke-width: 0.8"/>
      </g>
     </g>
     <g id="text_4">
      <!-- 0.6 -->
      <g transform="translate(356.951563 591.316563) scale(0.1 -0.1)">
       <defs>
        <path id="DejaVuSans-36" d="M 2113 2584 
Q 1688 2584 1439 2293 
Q 1191 2003 1191 1497 
Q 1191 994 1439 701 
Q 1688 409 2113 409 
Q 2538 409 2786 701 
Q 3034 994 3034 1497 
Q 3034 2003 2786 2293 
Q 2538 2584 2113 2584 
z
M 3366 4563 
L 3366 3988 
Q 3128 4100 2886 4159 
Q 2644 4219 2406 4219 
Q 1781 4219 1451 3797 
Q 1122 3375 1075 2522 
Q 1259 2794 1537 2939 
Q 1816 3084 2150 3084 
Q 2853 3084 3261 2657 
Q 3669 2231 3669 1497 
Q 3669 778 3244 343 
Q 2819 -91 2113 -91 
Q 1303 -91 875 529 
Q 447 1150 447 2328 
Q 447 3434 972 4092 
Q 1497 4750 2381 4750 
Q 2619 4750 2861 4703 
Q 3103 4656 3366 4563 
z
" transform="scale(0.015625)"/>
       </defs>
       <use xlink:href="#DejaVuSans-30"/>
       <use xlink:href="#DejaVuSans-2e" transform="translate(63.623047 0)"/>
       <use xlink:href="#DejaVuSans-36" transform="translate(95.410156 0)"/>
      </g>
     </g>
    </g>
    <g id="xtick_5">
     <g id="line2d_5">
      <g>
       <use xlink:href="#mb010430dfe" x="476.503125" y="576.718125" style="stroke: #000000; stroke-width: 0.8"/>
      </g>
     </g>
     <g id="text_5">
      <!-- 0.8 -->
      <g transform="translate(468.551563 591.316563) scale(0.1 -0.1)">
       <defs>
        <path id="DejaVuSans-38" d="M 2034 2216 
Q 1584 2216 1326 1975 
Q 1069 1734 1069 1313 
Q 1069 891 1326 650 
Q 1584 409 2034 409 
Q 2484 409 2743 651 
Q 3003 894 3003 1313 
Q 3003 1734 2745 1975 
Q 2488 2216 2034 2216 
z
M 1403 2484 
Q 997 2584 770 2862 
Q 544 3141 544 3541 
Q 544 4100 942 4425 
Q 1341 4750 2034 4750 
Q 2731 4750 3128 4425 
Q 3525 4100 3525 3541 
Q 3525 3141 3298 2862 
Q 3072 2584 2669 2484 
Q 3125 2378 3379 2068 
Q 3634 1759 3634 1313 
Q 3634 634 3220 271 
Q 2806 -91 2034 -91 
Q 1263 -91 848 271 
Q 434 634 434 1313 
Q 434 1759 690 2068 
Q 947 2378 1403 2484 
z
M 1172 3481 
Q 1172 3119 1398 2916 
Q 1625 2713 2034 2713 
Q 2441 2713 2670 2916 
Q 2900 3119 2900 3481 
Q 2900 3844 2670 4047 
Q 2441 4250 2034 4250 
Q 1625 4250 1398 4047 
Q 1172 3844 1172 3481 
z
" transform="scale(0.015625)"/>
       </defs>
       <use xlink:href="#DejaVuSans-30"/>
       <use xlink:href="#DejaVuSans-2e" transform="translate(63.623047 0)"/>
       <use xlink:href="#DejaVuSans-38" transform="translate(95.410156 0)"/>
      </g>
     </g>
    </g>
    <g id="xtick_6">
     <g id="line2d_6">
      <g>
       <use xlink:href="#mb010430dfe" x="588.103125" y="576.718125" style="stroke: #000000; stroke-width: 0.8"/>
      </g>
     </g>
     <g id="text_6">
      <!-- 1.0 -->
      <g transform="translate(580.151562 591.316563) scale(0.1 -0.1)">
       <defs>
        <path id="DejaVuSans-31" d="M 794 531 
L 1825 531 
L 1825 4091 
L 703 3866 
L 703 4441 
L 1819 4666 
L 2450 4666 
L 2450 531 
L 3481 531 
L 3481 0 
L 794 0 
L 794 531 
z
" transform="scale(0.015625)"/>
       </defs>
       <use xlink:href="#DejaVuSans-31"/>
       <use xlink:href="#DejaVuSans-2e" transform="translate(63.623047 0)"/>
       <use xlink:href="#DejaVuSans-30" transform="translate(95.410156 0)"/>
      </g>
     </g>
    </g>
   </g>
   <g id="matplotlib.axis_2">
    <g id="ytick_1">
     <g id="line2d_7">
      <defs>
       <path id="m6990ebf9b2" d="M 0 0 
L -3.5 0 
" style="stroke: #000000; stroke-width: 0.8"/>
      </defs>
      <g>
       <use xlink:href="#m6990ebf9b2" x="30.103125" y="576.718125" style="stroke: #000000; stroke-width: 0.8"/>
      </g>
     </g>
     <g id="text_7">
      <!-- 0.0 -->
      <g transform="translate(7.2 580.517344) scale(0.1 -0.1)">
       <use xlink:href="#DejaVuSans-30"/>
       <use xlink:href="#DejaVuSans-2e" transform="translate(63.623047 0)"/>
       <use xlink:href="#DejaVuSans-30" transform="translate(95.410156 0)"/>
      </g>
     </g>
    </g>
    <g id="ytick_2">
     <g id="line2d_8">
      <g>
       <use xlink:href="#m6990ebf9b2" x="30.103125" y="465.838125" style="stroke: #000000; stroke-width: 0.8"/>
      </g>
     </g>
     <g id="text_8">
      <!-- 0.2 -->
      <g transform="translate(7.2 469.637344) scale(0.1 -0.1)">
       <use xlink:href="#DejaVuSans-30"/>
       <use xlink:href="#DejaVuSans-2e" transform="translate(63.623047 0)"/>
       <use xlink:href="#DejaVuSans-32" transform="translate(95.410156 0)"/>
      </g>
     </g>
    </g>
    <g id="ytick_3">
     <g id="line2d_9">
      <g>
       <use xlink:href="#m6990ebf9b2" x="30.103125" y="354.958125" style="stroke: #000000; stroke-width: 0.8"/>
      </g>
     </g>
     <g id="text_9">
      <!-- 0.4 -->
      <g transform="translate(7.2 358.757344) scale(0.1 -0.1)">
       <use xlink:href="#DejaVuSans-30"/>
       <use xlink:href="#DejaVuSans-2e" transform="translate(63.623047 0)"/>
       <use xlink:href="#DejaVuSans-34" transform="translate(95.410156 0)"/>
      </g>
     </g>
    </g>
    <g id="ytick_4">
     <g id="line2d_10">
      <g>
       <use xlink:href="#m6990ebf9b2" x="30.103125" y="244.078125" style="stroke: #000000; stroke-width: 0.8"/>
      </g>
     </g>
     <g id="text_10">
      <!-- 0.6 -->
      <g transform="translate(7.2 247.877344) scale(0.1 -0.1)">
       <use xlink:href="#DejaVuSans-30"/>
       <use xlink:href="#DejaVuSans-2e" transform="translate(63.623047 0)"/>
       <use xlink:href="#DejaVuSans-36" transform="translate(95.410156 0)"/>
      </g>
     </g>
    </g>
    <g id="ytick_5">
     <g id="line2d_11">
      <g>
       <use xlink:href="#m6990ebf9b2" x="30.103125" y="133.198125" style="stroke: #000000; stroke-width: 0.8"/>
      </g>
     </g>
     <g id="text_11">
      <!-- 0.8 -->
      <g transform="translate(7.2 136.997344) scale(0.1 -0.1)">
       <use xlink:href="#DejaVuSans-30"/>
       <use xlink:href="#DejaVuSans-2e" transform="translate(63.623047 0)"/>
       <use xlink:href="#DejaVuSans-38" transform="translate(95.410156 0)"/>
      </g>
     </g>
    </g>
    <g id="ytick_6">
     <g id="line2d_12">
      <g>
       <use xlink:href="#m6990ebf9b2" x="30.103125" y="22.318125" style="stroke: #000000; stroke-width: 0.8"/>
      </g>
     </g>
     <g id="text_12">
      <!-- 1.0 -->
      <g transform="translate(7.2 26.117344) scale(0.1 -0.1)">
       <use xlink:href="#DejaVuSans-31"/>
       <use xlink:href="#DejaVuSans-2e" transform="translate(63.623047 0)"/>
       <use xlink:href="#DejaVuSans-30" transform="translate(95.410156 0)"/>
      </g>
     </g>
    </g>
   </g>
   <g id="line2d_13">
    <path d="M 496.320507 323.591289 
L 503.916553 429.935188 
L 579.407257 317.144725 
L 457.480356 208.250593 
L 294.271482 62.329184 
L 157.082718 535.826137 
L 496.320507 323.591289 
" clip-path="url(#p16fea10acd)" style="fill: none; stroke: #1f77b4; stroke-width: 1.8; stroke-linecap: square"/>
    <defs>
     <path id="mdc27c18b67" d="M 0 3 
C 0.795609 3 1.55874 2.683901 2.12132 2.12132 
C 2.683901 1.55874 3 0.795609 3 0 
C 3 -0.795609 2.683901 -1.55874 2.12132 -2.12132 
C 1.55874 -2.683901 0.795609 -3 0 -3 
C -0.795609 -3 -1.55874 -2.683901 -2.12132 -2.12132 
C -2.683901 -1.55874 -3 -0.795609 -3 0 
C -3 0.795609 -2.683901 1.55874 -2.12132 2.12132 
C -1.55874 2.683901 -0.795609 3 0 3 
z
" style="stroke: #1f77b4"/>
    </defs>
    <g clip-path="url(#p16fea10acd)">
     <use xlink:href="#mdc27c18b67" x="496.320507" y="323.591289" style="fill: #1f77b4; stroke: #1f77b4"/>
     <use xlink:href="#mdc27c18b67" x="503.916553" y="429.935188" style="fill: #1f77b4; stroke: #1f77b4"/>
     <use xlink:href="#mdc27c18b67" x="579.407257" y="317.144725" style="fill: #1f77b4; stroke: #1f77b4"/>
     <use xlink:href="#mdc27c18b67" x="457.480356" y="208.250593" style="fill: #1f77b4; stroke: #1f77b4"/>
     <use xlink:href="#mdc27c18b67" x="294.271482" y="62.329184" style="fill: #1f77b4; stroke: #1f77b4"/>
     <use xlink:href="#mdc27c18b67" x="157.082718" y="535.826137" style="fill: #1f77b4; stroke: #1f77b4"/>
     <use xlink:href="#mdc27c18b67" x="496.320507" y="323.591289" style="fill: #1f77b4; stroke: #1f77b4"/>
    </g>
   </g>
   <g id="line2d_14">
    <path d="M 496.320507 323.591289 
L 299.926809 319.352895 
L 218.719963 43.200697 
L 184.327623 531.223507 
L 32.946135 109.048472 
L 63.194756 391.738124 
L 496.320507 323.591289 
" clip-path="url(#p16fea10acd)" style="fill: none; stroke: #ff7f0e; stroke-width: 1.8; stroke-linecap: square"/>
    <defs>
     <path id="m3bf567f218" d="M 0 3 
C 0.795609 3 1.55874 2.683901 2.12132 2.12132 
C 2.683901 1.55874 3 0.795609 3 0 
C 3 -0.795609 2.683901 -1.55874 2.12132 -2.12132 
C 1.55874 -2.683901 0.795609 -3 0 -3 
C -0.795609 -3 -1.55874 -2.683901 -2.12132 -2.12132 
C -2.683901 -1.55874 -3 -0.795609 -3 0 
C -3 0.795609 -2.683901 1.55874 -2.12132 2.12132 
C -1.55874 2.683901 -0.795609 3 0 3 
z
" style="stroke: #ff7f0e"/>
    </defs>
    <g clip-path="url(#p16fea10acd)">
     <use xlink:href="#m3bf567f218" x="496.320507" y="323.591289" style="fill: #ff7f0e; stroke: #ff7f0e"/>
     <use xlink:href="#m3bf567f218" x="299.926809" y="319.352895" style="fill: #ff7f0e; stroke: #ff7f0e"/>
     <use xlink:href="#m3bf567f218" x="218.719963" y="43.200697" style="fill: #ff7f0e; stroke: #ff7f0e"/>
     <use xlink:href="#m3bf567f218" x="184.327623" y="531.223507" style="fill: #ff7f0e; stroke: #ff7f0e"/>
     <use xlink:href="#m3bf567f218" x="32.946135" y="109.048472" style="fill: #ff7f0e; stroke: #ff7f0e"/>
     <use xlink:href="#m3bf567f218" x="63.194756" y="391.738124" style="fill: #ff7f0e; stroke: #ff7f0e"/>
     <use xlink:href="#m3bf567f218" x="496.320507" y="323.591289" style="fill: #ff7f0e; stroke: #ff7f0e"/>
    </g>
   </g>
   <g id="line2d_15">
    <path d="M 496.320507 323.591289 
L 228.899548 523.723027 
L 173.421519 187.036449 
L 404.387757 574.343075 
L 511.823408 407.007406 
L 478.227332 558.973999 
L 67.388125 179.020405 
L 496.320507 323.591289 
" clip-path="url(#p16fea10acd)" style="fill: none; stroke: #98df8a; stroke-width: 1.8; stroke-linecap: square"/>
    <defs>
     <path id="m2861e6ab88" d="M 0 3 
C 0.795609 3 1.55874 2.683901 2.12132 2.12132 
C 2.683901 1.55874 3 0.795609 3 0 
C 3 -0.795609 2.683901 -1.55874 2.12132 -2.12132 
C 1.55874 -2.683901 0.795609 -3 0 -3 
C -0.795609 -3 -1.55874 -2.683901 -2.12132 -2.12132 
C -2.683901 -1.55874 -3 -0.795609 -3 0 
C -3 0.795609 -2.683901 1.55874 -2.12132 2.12132 
C -1.55874 2.683901 -0.795609 3 0 3 
z
" style="stroke: #98df8a"/>
    </defs>
    <g clip-path="url(#p16fea10acd)">
     <use xlink:href="#m2861e6ab88" x="496.320507" y="323.591289" style="fill: #98df8a; stroke: #98df8a"/>
     <use xlink:href="#m2861e6ab88" x="228.899548" y="523.723027" style="fill: #98df8a; stroke: #98df8a"/>
     <use xlink:href="#m2861e6ab88" x="173.421519" y="187.036449" style="fill: #98df8a; stroke: #98df8a"/>
     <use xlink:href="#m2861e6ab88" x="404.387757" y="574.343075" style="fill: #98df8a; stroke: #98df8a"/>
     <use xlink:href="#m2861e6ab88" x="511.823408" y="407.007406" style="fill: #98df8a; stroke: #98df8a"/>
     <use xlink:href="#m2861e6ab88" x="478.227332" y="558.973999" style="fill: #98df8a; stroke: #98df8a"/>
     <use xlink:href="#m2861e6ab88" x="67.388125" y="179.020405" style="fill: #98df8a; stroke: #98df8a"/>
     <use xlink:href="#m2861e6ab88" x="496.320507" y="323.591289" style="fill: #98df8a; stroke: #98df8a"/>
    </g>
   </g>
   <g id="line2d_16">
    <path d="M 496.320507 323.591289 
L 347.541503 362.581676 
L 280.471595 316.811518 
L 43.828251 327.444364 
L 95.059345 469.255998 
L 228.180846 149.199773 
L 93.660442 544.678796 
L 116.326402 277.216278 
L 496.320507 323.591289 
" clip-path="url(#p16fea10acd)" style="fill: none; stroke: #ff9896; stroke-width: 1.8; stroke-linecap: square"/>
    <defs>
     <path id="mb603641f48" d="M 0 3 
C 0.795609 3 1.55874 2.683901 2.12132 2.12132 
C 2.683901 1.55874 3 0.795609 3 0 
C 3 -0.795609 2.683901 -1.55874 2.12132 -2.12132 
C 1.55874 -2.683901 0.795609 -3 0 -3 
C -0.795609 -3 -1.55874 -2.683901 -2.12132 -2.12132 
C -2.683901 -1.55874 -3 -0.795609 -3 0 
C -3 0.795609 -2.683901 1.55874 -2.12132 2.12132 
C -1.55874 2.683901 -0.795609 3 0 3 
z
" style="stroke: #ff9896"/>
    </defs>
    <g clip-path="url(#p16fea10acd)">
     <use xlink:href="#mb603641f48" x="496.320507" y="323.591289" style="fill: #ff9896; stroke: #ff9896"/>
     <use xlink:href="#mb603641f48" x="347.541503" y="362.581676" style="fill: #ff9896; stroke: #ff9896"/>
     <use xlink:href="#mb603641f48" x="280.471595" y="316.811518" style="fill: #ff9896; stroke: #ff9896"/>
     <use xlink:href="#mb603641f48" x="43.828251" y="327.444364" style="fill: #ff9896; stroke: #ff9896"/>
     <use xlink:href="#mb603641f48" x="95.059345" y="469.255998" style="fill: #ff9896; stroke: #ff9896"/>
     <use xlink:href="#mb603641f48" x="228.180846" y="149.199773" style="fill: #ff9896; stroke: #ff9896"/>
     <use xlink:href="#mb603641f48" x="93.660442" y="544.678796" style="fill: #ff9896; stroke: #ff9896"/>
     <use xlink:href="#mb603641f48" x="116.326402" y="277.216278" style="fill: #ff9896; stroke: #ff9896"/>
     <use xlink:href="#mb603641f48" x="496.320507" y="323.591289" style="fill: #ff9896; stroke: #ff9896"/>
    </g>
   </g>
   <g id="line2d_17">
    <path d="M 496.320507 323.591289 
L 557.457755 535.909848 
L 558.681468 530.080334 
L 488.988375 329.874843 
L 427.775229 448.173274 
L 575.778026 400.804796 
L 146.035994 512.038496 
L 416.327845 467.037848 
L 374.10232 376.528158 
L 496.320507 323.591289 
" clip-path="url(#p16fea10acd)" style="fill: none; stroke: #8c564b; stroke-width: 1.8; stroke-linecap: square"/>
    <defs>
     <path id="m9a6a309ed6" d="M 0 3 
C 0.795609 3 1.55874 2.683901 2.12132 2.12132 
C 2.683901 1.55874 3 0.795609 3 0 
C 3 -0.795609 2.683901 -1.55874 2.12132 -2.12132 
C 1.55874 -2.683901 0.795609 -3 0 -3 
C -0.795609 -3 -1.55874 -2.683901 -2.12132 -2.12132 
C -2.683901 -1.55874 -3 -0.795609 -3 0 
C -3 0.795609 -2.683901 1.55874 -2.12132 2.12132 
C -1.55874 2.683901 -0.795609 3 0 3 
z
" style="stroke: #8c564b"/>
    </defs>
    <g clip-path="url(#p16fea10acd)">
     <use xlink:href="#m9a6a309ed6" x="496.320507" y="323.591289" style="fill: #8c564b; stroke: #8c564b"/>
     <use xlink:href="#m9a6a309ed6" x="557.457755" y="535.909848" style="fill: #8c564b; stroke: #8c564b"/>
     <use xlink:href="#m9a6a309ed6" x="558.681468" y="530.080334" style="fill: #8c564b; stroke: #8c564b"/>
     <use xlink:href="#m9a6a309ed6" x="488.988375" y="329.874843" style="fill: #8c564b; stroke: #8c564b"/>
     <use xlink:href="#m9a6a309ed6" x="427.775229" y="448.173274" style="fill: #8c564b; stroke: #8c564b"/>
     <use xlink:href="#m9a6a309ed6" x="575.778026" y="400.804796" style="fill: #8c564b; stroke: #8c564b"/>
     <use xlink:href="#m9a6a309ed6" x="146.035994" y="512.038496" style="fill: #8c564b; stroke: #8c564b"/>
     <use xlink:href="#m9a6a309ed6" x="416.327845" y="467.037848" style="fill: #8c564b; stroke: #8c564b"/>
     <use xlink:href="#m9a6a309ed6" x="374.10232" y="376.528158" style="fill: #8c564b; stroke: #8c564b"/>
     <use xlink:href="#m9a6a309ed6" x="496.320507" y="323.591289" style="fill: #8c564b; stroke: #8c564b"/>
    </g>
   </g>
   <g id="line2d_18">
    <path d="M 496.320507 323.591289 
L 245.835962 73.417735 
L 418.047057 155.695689 
L 266.743664 346.382116 
L 558.815936 373.494495 
L 348.871779 264.049274 
L 289.104968 223.929565 
L 344.523845 178.503683 
L 355.490232 285.768442 
L 496.320507 323.591289 
" clip-path="url(#p16fea10acd)" style="fill: none; stroke: #e377c2; stroke-width: 1.8; stroke-linecap: square"/>
    <defs>
     <path id="md1b6059fb3" d="M 0 3 
C 0.795609 3 1.55874 2.683901 2.12132 2.12132 
C 2.683901 1.55874 3 0.795609 3 0 
C 3 -0.795609 2.683901 -1.55874 2.12132 -2.12132 
C 1.55874 -2.683901 0.795609 -3 0 -3 
C -0.795609 -3 -1.55874 -2.683901 -2.12132 -2.12132 
C -2.683901 -1.55874 -3 -0.795609 -3 0 
C -3 0.795609 -2.683901 1.55874 -2.12132 2.12132 
C -1.55874 2.683901 -0.795609 3 0 3 
z
" style="stroke: #e377c2"/>
    </defs>
    <g clip-path="url(#p16fea10acd)">
     <use xlink:href="#md1b6059fb3" x="496.320507" y="323.591289" style="fill: #e377c2; stroke: #e377c2"/>
     <use xlink:href="#md1b6059fb3" x="245.835962" y="73.417735" style="fill: #e377c2; stroke: #e377c2"/>
     <use xlink:href="#md1b6059fb3" x="418.047057" y="155.695689" style="fill: #e377c2; stroke: #e377c2"/>
     <use xlink:href="#md1b6059fb3" x="266.743664" y="346.382116" style="fill: #e377c2; stroke: #e377c2"/>
     <use xlink:href="#md1b6059fb3" x="558.815936" y="373.494495" style="fill: #e377c2; stroke: #e377c2"/>
     <use xlink:href="#md1b6059fb3" x="348.871779" y="264.049274" style="fill: #e377c2; stroke: #e377c2"/>
     <use xlink:href="#md1b6059fb3" x="289.104968" y="223.929565" style="fill: #e377c2; stroke: #e377c2"/>
     <use xlink:href="#md1b6059fb3" x="344.523845" y="178.503683" style="fill: #e377c2; stroke: #e377c2"/>
     <use xlink:href="#md1b6059fb3" x="355.490232" y="285.768442" style="fill: #e377c2; stroke: #e377c2"/>
     <use xlink:href="#md1b6059fb3" x="496.320507" y="323.591289" style="fill: #e377c2; stroke: #e377c2"/>
    </g>
   </g>
   <g id="line2d_19">
    <path d="M 496.320507 323.591289 
L 437.596029 82.046959 
L 197.119218 235.142298 
L 438.092625 390.627108 
L 434.867395 313.70965 
L 341.28744 205.076077 
L 447.930188 185.048936 
L 301.02106 102.540923 
L 496.320507 323.591289 
" clip-path="url(#p16fea10acd)" style="fill: none; stroke: #c7c7c7; stroke-width: 1.8; stroke-linecap: square"/>
    <defs>
     <path id="me8ad4bd6f7" d="M 0 3 
C 0.795609 3 1.55874 2.683901 2.12132 2.12132 
C 2.683901 1.55874 3 0.795609 3 0 
C 3 -0.795609 2.683901 -1.55874 2.12132 -2.12132 
C 1.55874 -2.683901 0.795609 -3 0 -3 
C -0.795609 -3 -1.55874 -2.683901 -2.12132 -2.12132 
C -2.683901 -1.55874 -3 -0.795609 -3 0 
C -3 0.795609 -2.683901 1.55874 -2.12132 2.12132 
C -1.55874 2.683901 -0.795609 3 0 3 
z
" style="stroke: #c7c7c7"/>
    </defs>
    <g clip-path="url(#p16fea10acd)">
     <use xlink:href="#me8ad4bd6f7" x="496.320507" y="323.591289" style="fill: #c7c7c7; stroke: #c7c7c7"/>
     <use xlink:href="#me8ad4bd6f7" x="437.596029" y="82.046959" style="fill: #c7c7c7; stroke: #c7c7c7"/>
     <use xlink:href="#me8ad4bd6f7" x="197.119218" y="235.142298" style="fill: #c7c7c7; stroke: #c7c7c7"/>
     <use xlink:href="#me8ad4bd6f7" x="438.092625" y="390.627108" style="fill: #c7c7c7; stroke: #c7c7c7"/>
     <use xlink:href="#me8ad4bd6f7" x="434.867395" y="313.70965" style="fill: #c7c7c7; stroke: #c7c7c7"/>
     <use xlink:href="#me8ad4bd6f7" x="341.28744" y="205.076077" style="fill: #c7c7c7; stroke: #c7c7c7"/>
     <use xlink:href="#me8ad4bd6f7" x="447.930188" y="185.048936" style="fill: #c7c7c7; stroke: #c7c7c7"/>
     <use xlink:href="#me8ad4bd6f7" x="301.02106" y="102.540923" style="fill: #c7c7c7; stroke: #c7c7c7"/>
     <use xlink:href="#me8ad4bd6f7" x="496.320507" y="323.591289" style="fill: #c7c7c7; stroke: #c7c7c7"/>
    </g>
   </g>
   <g id="line2d_20">
    <path d="M 496.320507 323.591289 
L 481.699213 194.826897 
L 496.320507 323.591289 
" clip-path="url(#p16fea10acd)" style="fill: none; stroke: #dbdb8d; stroke-width: 1.8; stroke-linecap: square"/>
    <defs>
     <path id="me18f320923" d="M 0 3 
C 0.795609 3 1.55874 2.683901 2.12132 2.12132 
C 2.683901 1.55874 3 0.795609 3 0 
C 3 -0.795609 2.683901 -1.55874 2.12132 -2.12132 
C 1.55874 -2.683901 0.795609 -3 0 -3 
C -0.795609 -3 -1.55874 -2.683901 -2.12132 -2.12132 
C -2.683901 -1.55874 -3 -0.795609 -3 0 
C -3 0.795609 -2.683901 1.55874 -2.12132 2.12132 
C -1.55874 2.683901 -0.795609 3 0 3 
z
" style="stroke: #dbdb8d"/>
    </defs>
    <g clip-path="url(#p16fea10acd)">
     <use xlink:href="#me18f320923" x="496.320507" y="323.591289" style="fill: #dbdb8d; stroke: #dbdb8d"/>
     <use xlink:href="#me18f320923" x="481.699213" y="194.826897" style="fill: #dbdb8d; stroke: #dbdb8d"/>
     <use xlink:href="#me18f320923" x="496.320507" y="323.591289" style="fill: #dbdb8d; stroke: #dbdb8d"/>
    </g>
   </g>
   <g id="line2d_21">
    <path d="M 496.320507 323.591289 
L 568.895095 102.646799 
L 312.15035 26.386305 
L 582.472909 40.718668 
L 496.320507 323.591289 
" clip-path="url(#p16fea10acd)" style="fill: none; stroke: #9edae5; stroke-width: 1.8; stroke-linecap: square"/>
    <defs>
     <path id="m2e0fbefa22" d="M 0 3 
C 0.795609 3 1.55874 2.683901 2.12132 2.12132 
C 2.683901 1.55874 3 0.795609 3 0 
C 3 -0.795609 2.683901 -1.55874 2.12132 -2.12132 
C 1.55874 -2.683901 0.795609 -3 0 -3 
C -0.795609 -3 -1.55874 -2.683901 -2.12132 -2.12132 
C -2.683901 -1.55874 -3 -0.795609 -3 0 
C -3 0.795609 -2.683901 1.55874 -2.12132 2.12132 
C -1.55874 2.683901 -0.795609 3 0 3 
z
" style="stroke: #9edae5"/>
    </defs>
    <g clip-path="url(#p16fea10acd)">
     <use xlink:href="#m2e0fbefa22" x="496.320507" y="323.591289" style="fill: #9edae5; stroke: #9edae5"/>
     <use xlink:href="#m2e0fbefa22" x="568.895095" y="102.646799" style="fill: #9edae5; stroke: #9edae5"/>
     <use xlink:href="#m2e0fbefa22" x="312.15035" y="26.386305" style="fill: #9edae5; stroke: #9edae5"/>
     <use xlink:href="#m2e0fbefa22" x="582.472909" y="40.718668" style="fill: #9edae5; stroke: #9edae5"/>
     <use xlink:href="#m2e0fbefa22" x="496.320507" y="323.591289" style="fill: #9edae5; stroke: #9edae5"/>
    </g>
   </g>
   <g id="patch_3">
    <path d="M 30.103125 576.718125 
L 30.103125 22.318125 
" style="fill: none; stroke: #000000; stroke-width: 0.8; stroke-linejoin: miter; stroke-linecap: square"/>
   </g>
   <g id="patch_4">
    <path d="M 588.103125 576.718125 
L 588.103125 22.318125 
" style="fill: none; stroke: #000000; stroke-width: 0.8; stroke-linejoin: miter; stroke-linecap: square"/>
   </g>
   <g id="patch_5">
    <path d="M 30.103125 576.718125 
L 588.103125 576.718125 
" style="fill: none; stroke: #000000; stroke-width: 0.8; stroke-linejoin: miter; stroke-linecap: square"/>
   </g>
   <g id="patch_6">
    <path d="M 30.103125 22.318125 
L 588.103125 22.318125 
" style="fill: none; stroke: #000000; stroke-width: 0.8; stroke-linejoin: miter; stroke-linecap: square"/>
   </g>
   <g id="text_13">
    <!-- Greedy; route_count=9; total_distance=26.12 -->
    <g transform="translate(170.551875 16.318125) scale(0.12 -0.12)">
     <defs>
      <path id="DejaVuSans-47" d="M 3809 666 
L 3809 1919 
L 2778 1919 
L 2778 2438 
L 4434 2438 
L 4434 434 
Q 4069 175 3628 42 
Q 3188 -91 2688 -91 
Q 1594 -91 976 548 
Q 359 1188 359 2328 
Q 359 3472 976 4111 
Q 1594 4750 2688 4750 
Q 3144 4750 3555 4637 
Q 3966 4525 4313 4306 
L 4313 3634 
Q 3963 3931 3569 4081 
Q 3175 4231 2741 4231 
Q 1884 4231 1454 3753 
Q 1025 3275 1025 2328 
Q 1025 1384 1454 906 
Q 1884 428 2741 428 
Q 3075 428 3337 486 
Q 3600 544 3809 666 
z
" transform="scale(0.015625)"/>
      <path id="DejaVuSans-72" d="M 2631 2963 
Q 2534 3019 2420 3045 
Q 2306 3072 2169 3072 
Q 1681 3072 1420 2755 
Q 1159 2438 1159 1844 
L 1159 0 
L 581 0 
L 581 3500 
L 1159 3500 
L 1159 2956 
Q 1341 3275 1631 3429 
Q 1922 3584 2338 3584 
Q 2397 3584 2469 3576 
Q 2541 3569 2628 3553 
L 2631 2963 
z
" transform="scale(0.015625)"/>
      <path id="DejaVuSans-65" d="M 3597 1894 
L 3597 1613 
L 953 1613 
Q 991 1019 1311 708 
Q 1631 397 2203 397 
Q 2534 397 2845 478 
Q 3156 559 3463 722 
L 3463 178 
Q 3153 47 2828 -22 
Q 2503 -91 2169 -91 
Q 1331 -91 842 396 
Q 353 884 353 1716 
Q 353 2575 817 3079 
Q 1281 3584 2069 3584 
Q 2775 3584 3186 3129 
Q 3597 2675 3597 1894 
z
M 3022 2063 
Q 3016 2534 2758 2815 
Q 2500 3097 2075 3097 
Q 1594 3097 1305 2825 
Q 1016 2553 972 2059 
L 3022 2063 
z
" transform="scale(0.015625)"/>
      <path id="DejaVuSans-64" d="M 2906 2969 
L 2906 4863 
L 3481 4863 
L 3481 0 
L 2906 0 
L 2906 525 
Q 2725 213 2448 61 
Q 2172 -91 1784 -91 
Q 1150 -91 751 415 
Q 353 922 353 1747 
Q 353 2572 751 3078 
Q 1150 3584 1784 3584 
Q 2172 3584 2448 3432 
Q 2725 3281 2906 2969 
z
M 947 1747 
Q 947 1113 1208 752 
Q 1469 391 1925 391 
Q 2381 391 2643 752 
Q 2906 1113 2906 1747 
Q 2906 2381 2643 2742 
Q 2381 3103 1925 3103 
Q 1469 3103 1208 2742 
Q 947 2381 947 1747 
z
" transform="scale(0.015625)"/>
      <path id="DejaVuSans-79" d="M 2059 -325 
Q 1816 -950 1584 -1140 
Q 1353 -1331 966 -1331 
L 506 -1331 
L 506 -850 
L 844 -850 
Q 1081 -850 1212 -737 
Q 1344 -625 1503 -206 
L 1606 56 
L 191 3500 
L 800 3500 
L 1894 763 
L 2988 3500 
L 3597 3500 
L 2059 -325 
z
" transform="scale(0.015625)"/>
      <path id="DejaVuSans-3b" d="M 750 3309 
L 1409 3309 
L 1409 2516 
L 750 2516 
L 750 3309 
z
M 750 794 
L 1409 794 
L 1409 256 
L 897 -744 
L 494 -744 
L 750 256 
L 750 794 
z
" transform="scale(0.015625)"/>
      <path id="DejaVuSans-20" transform="scale(0.015625)"/>
      <path id="DejaVuSans-6f" d="M 1959 3097 
Q 1497 3097 1228 2736 
Q 959 2375 959 1747 
Q 959 1119 1226 758 
Q 1494 397 1959 397 
Q 2419 397 2687 759 
Q 2956 1122 2956 1747 
Q 2956 2369 2687 2733 
Q 2419 3097 1959 3097 
z
M 1959 3584 
Q 2709 3584 3137 3096 
Q 3566 2609 3566 1747 
Q 3566 888 3137 398 
Q 2709 -91 1959 -91 
Q 1206 -91 779 398 
Q 353 888 353 1747 
Q 353 2609 779 3096 
Q 1206 3584 1959 3584 
z
" transform="scale(0.015625)"/>
      <path id="DejaVuSans-75" d="M 544 1381 
L 544 3500 
L 1119 3500 
L 1119 1403 
Q 1119 906 1312 657 
Q 1506 409 1894 409 
Q 2359 409 2629 706 
Q 2900 1003 2900 1516 
L 2900 3500 
L 3475 3500 
L 3475 0 
L 2900 0 
L 2900 538 
Q 2691 219 2414 64 
Q 2138 -91 1772 -91 
Q 1169 -91 856 284 
Q 544 659 544 1381 
z
M 1991 3584 
L 1991 3584 
z
" transform="scale(0.015625)"/>
      <path id="DejaVuSans-74" d="M 1172 4494 
L 1172 3500 
L 2356 3500 
L 2356 3053 
L 1172 3053 
L 1172 1153 
Q 1172 725 1289 603 
Q 1406 481 1766 481 
L 2356 481 
L 2356 0 
L 1766 0 
Q 1100 0 847 248 
Q 594 497 594 1153 
L 594 3053 
L 172 3053 
L 172 3500 
L 594 3500 
L 594 4494 
L 1172 4494 
z
" transform="scale(0.015625)"/>
      <path id="DejaVuSans-5f" d="M 3263 -1063 
L 3263 -1509 
L -63 -1509 
L -63 -1063 
L 3263 -1063 
z
" transform="scale(0.015625)"/>
      <path id="DejaVuSans-63" d="M 3122 3366 
L 3122 2828 
Q 2878 2963 2633 3030 
Q 2388 3097 2138 3097 
Q 1578 3097 1268 2742 
Q 959 2388 959 1747 
Q 959 1106 1268 751 
Q 1578 397 2138 397 
Q 2388 397 2633 464 
Q 2878 531 3122 666 
L 3122 134 
Q 2881 22 2623 -34 
Q 2366 -91 2075 -91 
Q 1284 -91 818 406 
Q 353 903 353 1747 
Q 353 2603 823 3093 
Q 1294 3584 2113 3584 
Q 2378 3584 2631 3529 
Q 2884 3475 3122 3366 
z
" transform="scale(0.015625)"/>
      <path id="DejaVuSans-6e" d="M 3513 2113 
L 3513 0 
L 2938 0 
L 2938 2094 
Q 2938 2591 2744 2837 
Q 2550 3084 2163 3084 
Q 1697 3084 1428 2787 
Q 1159 2491 1159 1978 
L 1159 0 
L 581 0 
L 581 3500 
L 1159 3500 
L 1159 2956 
Q 1366 3272 1645 3428 
Q 1925 3584 2291 3584 
Q 2894 3584 3203 3211 
Q 3513 2838 3513 2113 
z
" transform="scale(0.015625)"/>
      <path id="DejaVuSans-3d" d="M 678 2906 
L 4684 2906 
L 4684 2381 
L 678 2381 
L 678 2906 
z
M 678 1631 
L 4684 1631 
L 4684 1100 
L 678 1100 
L 678 1631 
z
" transform="scale(0.015625)"/>
      <path id="DejaVuSans-39" d="M 703 97 
L 703 672 
Q 941 559 1184 500 
Q 1428 441 1663 441 
Q 2288 441 2617 861 
Q 2947 1281 2994 2138 
Q 2813 1869 2534 1725 
Q 2256 1581 1919 1581 
Q 1219 1581 811 2004 
Q 403 2428 403 3163 
Q 403 3881 828 4315 
Q 1253 4750 1959 4750 
Q 2769 4750 3195 4129 
Q 3622 3509 3622 2328 
Q 3622 1225 3098 567 
Q 2575 -91 1691 -91 
Q 1453 -91 1209 -44 
Q 966 3 703 97 
z
M 1959 2075 
Q 2384 2075 2632 2365 
Q 2881 2656 2881 3163 
Q 2881 3666 2632 3958 
Q 2384 4250 1959 4250 
Q 1534 4250 1286 3958 
Q 1038 3666 1038 3163 
Q 1038 2656 1286 2365 
Q 1534 2075 1959 2075 
z
" transform="scale(0.015625)"/>
      <path id="DejaVuSans-61" d="M 2194 1759 
Q 1497 1759 1228 1600 
Q 959 1441 959 1056 
Q 959 750 1161 570 
Q 1363 391 1709 391 
Q 2188 391 2477 730 
Q 2766 1069 2766 1631 
L 2766 1759 
L 2194 1759 
z
M 3341 1997 
L 3341 0 
L 2766 0 
L 2766 531 
Q 2569 213 2275 61 
Q 1981 -91 1556 -91 
Q 1019 -91 701 211 
Q 384 513 384 1019 
Q 384 1609 779 1909 
Q 1175 2209 1959 2209 
L 2766 2209 
L 2766 2266 
Q 2766 2663 2505 2880 
Q 2244 3097 1772 3097 
Q 1472 3097 1187 3025 
Q 903 2953 641 2809 
L 641 3341 
Q 956 3463 1253 3523 
Q 1550 3584 1831 3584 
Q 2591 3584 2966 3190 
Q 3341 2797 3341 1997 
z
" transform="scale(0.015625)"/>
      <path id="DejaVuSans-6c" d="M 603 4863 
L 1178 4863 
L 1178 0 
L 603 0 
L 603 4863 
z
" transform="scale(0.015625)"/>
      <path id="DejaVuSans-69" d="M 603 3500 
L 1178 3500 
L 1178 0 
L 603 0 
L 603 3500 
z
M 603 4863 
L 1178 4863 
L 1178 4134 
L 603 4134 
L 603 4863 
z
" transform="scale(0.015625)"/>
      <path id="DejaVuSans-73" d="M 2834 3397 
L 2834 2853 
Q 2591 2978 2328 3040 
Q 2066 3103 1784 3103 
Q 1356 3103 1142 2972 
Q 928 2841 928 2578 
Q 928 2378 1081 2264 
Q 1234 2150 1697 2047 
L 1894 2003 
Q 2506 1872 2764 1633 
Q 3022 1394 3022 966 
Q 3022 478 2636 193 
Q 2250 -91 1575 -91 
Q 1294 -91 989 -36 
Q 684 19 347 128 
L 347 722 
Q 666 556 975 473 
Q 1284 391 1588 391 
Q 1994 391 2212 530 
Q 2431 669 2431 922 
Q 2431 1156 2273 1281 
Q 2116 1406 1581 1522 
L 1381 1569 
Q 847 1681 609 1914 
Q 372 2147 372 2553 
Q 372 3047 722 3315 
Q 1072 3584 1716 3584 
Q 2034 3584 2315 3537 
Q 2597 3491 2834 3397 
z
" transform="scale(0.015625)"/>
     </defs>
     <use xlink:href="#DejaVuSans-47"/>
     <use xlink:href="#DejaVuSans-72" transform="translate(77.490234 0)"/>
     <use xlink:href="#DejaVuSans-65" transform="translate(116.353516 0)"/>
     <use xlink:href="#DejaVuSans-65" transform="translate(177.876953 0)"/>
     <use xlink:href="#DejaVuSans-64" transform="translate(239.400391 0)"/>
     <use xlink:href="#DejaVuSans-79" transform="translate(302.876953 0)"/>
     <use xlink:href="#DejaVuSans-3b" transform="translate(362.056641 0)"/>
     <use xlink:href="#DejaVuSans-20" transform="translate(395.748047 0)"/>
     <use xlink:href="#DejaVuSans-72" transform="translate(427.535156 0)"/>
     <use xlink:href="#DejaVuSans-6f" transform="translate(466.398438 0)"/>
     <use xlink:href="#DejaVuSans-75" transform="translate(527.580078 0)"/>
     <use xlink:href="#DejaVuSans-74" transform="translate(590.958984 0)"/>
     <use xlink:href="#DejaVuSans-65" transform="translate(630.167969 0)"/>
     <use xlink:href="#DejaVuSans-5f" transform="translate(691.691406 0)"/>
     <use xlink:href="#DejaVuSans-63" transform="translate(741.691406 0)"/>
     <use xlink:href="#DejaVuSans-6f" transform="translate(796.671875 0)"/>
     <use xlink:href="#DejaVuSans-75" transform="translate(857.853516 0)"/>
     <use xlink:href="#DejaVuSans-6e" transform="translate(921.232422 0)"/>
     <use xlink:href="#DejaVuSans-74" transform="translate(984.611328 0)"/>
     <use xlink:href="#DejaVuSans-3d" transform="translate(1023.820312 0)"/>
     <use xlink:href="#DejaVuSans-39" transform="translate(1107.609375 0)"/>
     <use xlink:href="#DejaVuSans-3b" transform="translate(1171.232422 0)"/>
     <use xlink:href="#DejaVuSans-20" transform="translate(1204.923828 0)"/>
     <use xlink:href="#DejaVuSans-74" transform="translate(1236.710938 0)"/>
     <use xlink:href="#DejaVuSans-6f" transform="translate(1275.919922 0)"/>
     <use xlink:href="#DejaVuSans-74" transform="translate(1337.101562 0)"/>
     <use xlink:href="#DejaVuSans-61" transform="translate(1376.310547 0)"/>
     <use xlink:href="#DejaVuSans-6c" transform="translate(1437.589844 0)"/>
     <use xlink:href="#DejaVuSans-5f" transform="translate(1465.373047 0)"/>
     <use xlink:href="#DejaVuSans-64" transform="translate(1515.373047 0)"/>
     <use xlink:href="#DejaVuSans-69" transform="translate(1578.849609 0)"/>
     <use xlink:href="#DejaVuSans-73" transform="translate(1606.632812 0)"/>
     <use xlink:href="#DejaVuSans-74" transform="translate(1658.732422 0)"/>
     <use xlink:href="#DejaVuSans-61" transform="translate(1697.941406 0)"/>
     <use xlink:href="#DejaVuSans-6e" transform="translate(1759.220703 0)"/>
     <use xlink:href="#DejaVuSans-63" transform="translate(1822.599609 0)"/>
     <use xlink:href="#DejaVuSans-65" transform="translate(1877.580078 0)"/>
     <use xlink:href="#DejaVuSans-3d" transform="translate(1939.103516 0)"/>
     <use xlink:href="#DejaVuSans-32" transform="translate(2022.892578 0)"/>
     <use xlink:href="#DejaVuSans-36" transform="translate(2086.515625 0)"/>
     <use xlink:href="#DejaVuSans-2e" transform="translate(2150.138672 0)"/>
     <use xlink:href="#DejaVuSans-31" transform="translate(2181.925781 0)"/>
     <use xlink:href="#DejaVuSans-32" transform="translate(2245.548828 0)"/>
    </g>
   </g>
  </g>
 </g>
 <defs>
  <clipPath id="p16fea10acd">
   <rect x="30.103125" y="22.318125" width="558" height="554.4"/>
  </clipPath>
 </defs>
</svg>
